# xmcd CD database file
#
# Track frame offsets:
#	150
#	21925
#	34170
#	46807
#	60192
#	75092
#	92557
#	108892
#	124542
#	137910
#	155005
#	168905
#	182615
#	195407
#	209395
#	220902
#
# Disc length: 3212 seconds
#
# Revision: 2
# Processed by: cddbd v1.5.1PL0 Copyright (c) Steve Scherf et al.
# Submitted via: CDex 1.51
#
DISCID=c50c8a10
DTITLE=Jonny Hill - Seinen großen Erfolge
DYEAR=1992
DGENRE=Country
TTITLE0=Ruf Teddybär Eins-Vier
TTITLE1=Wenn ich nur fliegen könnte
TTITLE2=500 Meilen von zuhaus
TTITLE3=Ich bin einer so wie Du
TTITLE4=Das fremde Gesicht
TTITLE5=Sie waren sich zu spät begegnet
TTITLE6=Wenn Du bei mir bist
TTITLE7=Westwärts
TTITLE8=Nur allzugern
TTITLE9=Rosen für Mama
TTITLE10=Da sind so viele Fragen
TTITLE11=Es ist dein Lächeln
TTITLE12=Kann Liebe alles verzeih´n
TTITLE13=Ich und Fred
TTITLE14=Lichter auf den Hügeln
TTITLE15=Hallo Teddybär
EXTD=YEAR: 1992
EXTT0=
EXTT1=
EXTT2=
EXTT3=
EXTT4=
EXTT5=
EXTT6=
EXTT7=
EXTT8=
EXTT9=
EXTT10=
EXTT11=
EXTT12=
EXTT13=
EXTT14=
EXTT15=
PLAYORDER=
